<svg xmlns="http://www.w3.org/2000/svg" width="28px" height="6px">
  <!-- S -->
    <rect x="2" y="1" width="1px" height="2px" fill="#cd1414" />
    <rect x="3" y="0" width="1px" height="1px" fill="#cd1414" />
    <rect x="4" y="1" width="1px" height="1px" fill="#cd1414" />
    <rect x="3" y="3" width="1px" height="1px" fill="#cd1414" />
    <rect x="4" y="4" width="1px" height="1px" fill="#cd1414" />
    <rect x="3" y="5" width="1px" height="1px" fill="#cd1414" />
    <rect x="2" y="4" width="1px" height="1px" fill="#cd1414" />
    <!-- A -->
      <rect x="6" y="1" width="1px" height="5px" fill="#cd1414" />
      <rect x="8" y="1" width="1px" height="5px" fill="#cd1414" />
      <rect x="7" y="0" width="1px" height="1px" fill="#cd1414" />
      <rect x="6" y="3" width="2px" height="1px" fill="#cd1414" />
      <!-- RR -->
        <rect x="10" y="1" width="1px" height="1px" fill="#cd1414" />
        <rect x="14" y="1" width="1px" height="1px" fill="#cd1414" />
        <rect x="11" y="0" width="3px" height="1px" fill="#cd1414" />
        <rect x="12" y="0" width="1px" height="6px" fill="#cd1414" />
        <rect x="11" y="2" width="1px" height="1px" fill="#cd1414" />
        <rect x="13" y="2" width="1px" height="1px" fill="#cd1414" />
        <rect x="10" y="3" width="1px" height="3px" fill="#cd1414" />
        <rect x="14" y="3" width="1px" height="3px" fill="#cd1414" />
        <!-- SHAPE -->
          <rect x="18" y="2" width="9px" height="2px" fill="#f1e9da" />
          <rect x="19" y="1" width="1px" height="4px" fill="#f1e9da" />
          <rect x="25" y="1" width="1px" height="4px" fill="#f1e9da" />
          <rect x="22" y="0" width="1px" height="6px" fill="#f1e9da" />
          <rect x="20" y="0" width="1px" height="1px" fill="#f1e9da" />
          <rect x="20" y="5" width="1px" height="1px" fill="#f1e9da" />
          <rect x="24" y="0" width="1px" height="1px" fill="#f1e9da" />
          <rect x="24" y="5" width="1px" height="1px" fill="#f1e9da" />
</svg>